<mxfile host="app.diagrams.net" agent="Mozilla/5.0 (X11; Linux x86_64; rv:130.0) Gecko/20100101 Firefox/130.0" version="24.7.17">
  <diagram name="Page-1" id="L6y1dJaWX7HvOfDhKzMT">
    <mxGraphModel dx="1217" dy="708" grid="1" gridSize="10" guides="1" tooltips="1" connect="1" arrows="1" fold="1" page="1" pageScale="1" pageWidth="850" pageHeight="1100" math="0" shadow="0">
      <root>
        <mxCell id="0" />
        <mxCell id="1" parent="0" />
        <mxCell id="XF_axqlJQ_EYb5hoPTRm-2" value="&lt;font style=&quot;font-size: 50px;&quot;&gt;&lt;b style=&quot;font-size: 60px;&quot;&gt;&lt;font style=&quot;font-size: 60px;&quot;&gt;Y&amp;nbsp; ~&amp;nbsp; X&lt;br&gt;&lt;/font&gt;&lt;/b&gt;&lt;/font&gt;" style="text;html=1;align=center;verticalAlign=middle;whiteSpace=wrap;rounded=0;" vertex="1" parent="1">
          <mxGeometry x="120" y="250" width="520" height="90" as="geometry" />
        </mxCell>
        <mxCell id="XF_axqlJQ_EYb5hoPTRm-6" value="" style="edgeStyle=orthogonalEdgeStyle;rounded=0;orthogonalLoop=1;jettySize=auto;html=1;startArrow=classic;startFill=1;endArrow=none;endFill=0;" edge="1" parent="1" source="XF_axqlJQ_EYb5hoPTRm-4" target="XF_axqlJQ_EYb5hoPTRm-5">
          <mxGeometry relative="1" as="geometry" />
        </mxCell>
        <mxCell id="XF_axqlJQ_EYb5hoPTRm-4" value="DV&lt;br&gt;Dependent Variable" style="rounded=1;whiteSpace=wrap;html=1;fillColor=none;" vertex="1" parent="1">
          <mxGeometry x="240" y="190" width="120" height="60" as="geometry" />
        </mxCell>
        <mxCell id="XF_axqlJQ_EYb5hoPTRm-5" value="IV&lt;br&gt;Independent Variable" style="rounded=1;whiteSpace=wrap;html=1;fillColor=none;" vertex="1" parent="1">
          <mxGeometry x="400" y="190" width="120" height="60" as="geometry" />
        </mxCell>
        <mxCell id="XF_axqlJQ_EYb5hoPTRm-8" value="&lt;div&gt;Cause&lt;/div&gt;&lt;div&gt;Manipulated&lt;br&gt;&lt;/div&gt;" style="rounded=0;whiteSpace=wrap;html=1;fillColor=none;" vertex="1" parent="1">
          <mxGeometry x="400" y="320" width="120" height="60" as="geometry" />
        </mxCell>
        <mxCell id="XF_axqlJQ_EYb5hoPTRm-9" value="Effect&lt;br&gt;Measured" style="rounded=0;whiteSpace=wrap;html=1;fillColor=none;" vertex="1" parent="1">
          <mxGeometry x="240" y="320" width="120" height="60" as="geometry" />
        </mxCell>
      </root>
    </mxGraphModel>
  </diagram>
</mxfile>
